HIERARCHY
ROOT Hips
{
	OFFSET 0.00 0.00 0.00
	CHANNELS 6 Xposition Yposition Zposition Xrotation Yrotation Zrotation
	JOINT Spine
	{
		OFFSET 0.00000 1.70439 2.55658
		CHANNELS 3 Xrotation Yrotation Zrotation
		JOINT Spine1
		{
			OFFSET 0.00000 0.59193 3.35699
			CHANNELS 3 Xrotation Yrotation Zrotation
			JOINT Spine2
			{
				OFFSET 0.00000 0.29710 3.39581
				CHANNELS 3 Xrotation Yrotation Zrotation
				JOINT Spine3
				{
					OFFSET 0.00000 0.00000 3.40878
					CHANNELS 3 Xrotation Yrotation Zrotation
					JOINT Neck
					{
						OFFSET 0.00000 -1.27828 8.94804
						CHANNELS 3 Xrotation Yrotation Zrotation
						JOINT Head
						{
							OFFSET 0.00000 -0.81390 4.61586
							CHANNELS 3 Xrotation Yrotation Zrotation
							End Site
							{
								OFFSET 0.00000 0.00001 5.51796
							}
						}
					}
					JOINT RightShoulder
					{
						OFFSET -1.18875 -1.98124 6.41925
						CHANNELS 3 Xrotation Yrotation Zrotation
						JOINT RightArm
						{
							OFFSET -5.90412 0.00000 0.00000
							CHANNELS 3 Xrotation Yrotation Zrotation
							JOINT RightForeArm
							{
								OFFSET -11.94674 0.00000 0.00000
								CHANNELS 3 Xrotation Yrotation Zrotation
								JOINT RightHand
								{
									OFFSET -10.17720 0.00000 0.00000
									CHANNELS 3 Xrotation Yrotation Zrotation
									JOINT RightHandEnd
									{
										OFFSET -2.84518 0.00000 0.00000
										CHANNELS 3 Xrotation Yrotation Zrotation
										End Site
										{
											OFFSET -2.84518 0.00000 0.00000
										}
									}
									JOINT RightHandThumb1
									{
										OFFSET -1.13807 -1.89679 -0.75871
										CHANNELS 3 Yrotation Xrotation Zrotation
										End Site
										{
											OFFSET -2.74823 -0.73639 0.00000
										}
									}
								}
							}
						}
					}
					JOINT LeftShoulder
					{
						OFFSET 1.18875 -1.98124 6.41925
						CHANNELS 3 Xrotation Yrotation Zrotation
						JOINT LeftArm
						{
							OFFSET 5.90412 0.00000 0.00000
							CHANNELS 3 Xrotation Yrotation Zrotation
							JOINT LeftForeArm
							{
								OFFSET 11.94674 0.00000 0.00000
								CHANNELS 3 Xrotation Yrotation Zrotation
								JOINT LeftHand
								{
									OFFSET 10.17720 0.00000 0.00000
									CHANNELS 3 Xrotation Yrotation Zrotation
									JOINT LeftHandEnd
									{
										OFFSET 2.84518 0.00000 0.00000
										CHANNELS 3 Xrotation Yrotation Zrotation
										End Site
										{
											OFFSET 2.84518 0.00000 0.00000
										}
									}
									JOINT LeftHandThumb1
									{
										OFFSET 1.13807 -1.89679 -0.75871
										CHANNELS 3 Yrotation Xrotation Zrotation
										End Site
										{
											OFFSET 2.74823 -0.73639 0.00000
										}
									}
								}
							}
						}
					}
				}
			}
		}
	}
	JOINT RightUpLeg
	{
		OFFSET -3.52662 0.00000 -1.03025
		CHANNELS 3 Xrotation Yrotation Zrotation
		JOINT RightLeg
		{
			OFFSET 0.00001 0.00000 -17.80159
			CHANNELS 3 Xrotation Yrotation Zrotation
			JOINT RightFoot
			{
				OFFSET 0.00001 0.00000 -16.85992
				CHANNELS 3 Xrotation Yrotation Zrotation
				JOINT RightToeBase
				{
					OFFSET 0.00000 -5.42953 -1.97619
					CHANNELS 3 Xrotation Yrotation Zrotation
					End Site
					{
						OFFSET 0.00000 -2.85300 -0.00000
					}
				}
			}
		}
	}
	JOINT LeftUpLeg
	{
		OFFSET 3.52662 0.00000 -1.03025
		CHANNELS 3 Xrotation Yrotation Zrotation
		JOINT LeftLeg
		{
			OFFSET 0.00001 0.00000 -17.80159
			CHANNELS 3 Xrotation Yrotation Zrotation
			JOINT LeftFoot
			{
				OFFSET 0.00001 0.00000 -16.85992
				CHANNELS 3 Xrotation Yrotation Zrotation
				JOINT LeftToeBase
				{
					OFFSET 0.00000 -5.42953 -1.97619
					CHANNELS 3 Xrotation Yrotation Zrotation
					End Site
					{
						OFFSET 0.00000 -2.85300 -0.00000
					}
				}
			}
		}
	}
}
MOTION
Frames: 13
Frame Time: 0.008342
 1.9143 -34.0823 31.1007 -56.4398 -3.4947 -175.3614 24.0353 -6.6775 2.0067 8.6398 -0.8527 -0.2602 3.0957 0.8957 4.5709 0.8652 -0.1910 -0.8291 23.4207 -7.5147 10.2764 -16.9348 9.7156 -9.8755 -18.8762 22.4131 43.9202 -43.2909 7.4531 26.9912 0.0000 0.0000 33.1990 48.9454 75.0913 -51.8695 0.0000 0.0000 -0.0000 0.0000 0.0000 -0.0000 -26.6762 -18.4631 -43.0772 -36.0373 13.0341 -26.8779 -0.0000 -0.0000 -41.3131 -25.6330 -72.2290 -5.4951 0.0000 0.0000 -0.0000 -0.0000 -0.0000 0.0000 -71.7612 1.2242 -15.0659 72.9752 0.0000 0.0000 -39.8016 -5.8614 -16.3579 -23.0457 0.0000 -0.0000 -29.9226 -5.4734 9.8070 32.8392 0.0000 0.0000 -9.5628 12.5884 3.1566 -38.4236 0.0000 -0.0000
 1.9627 -33.9647 31.1125 -56.3918 -3.4053 -175.2641 24.0325 -6.6043 1.9582 8.6418 -0.8526 -0.2672 3.1149 0.9029 4.5371 0.8695 -0.1856 -0.8296 23.4042 -7.4917 10.2356 -16.9185 9.6777 -9.8511 -18.9136 22.3781 43.9356 -43.1633 7.3953 26.9490 0.0000 0.0000 33.2287 49.2366 75.1100 -52.0648 0.0000 0.0000 -0.0000 0.0000 -0.0000 -0.0000 -26.6503 -18.5053 -43.0592 -35.9008 13.0073 -26.9503 -0.0000 -0.0000 -41.1907 -26.0355 -72.2696 -5.7434 -0.0000 -0.0000 -0.0000 -0.0000 0.0000 0.0000 -71.3574 1.2167 -15.0628 72.6948 0.0000 0.0000 -39.8440 -5.8068 -16.3346 -23.1218 0.0000 -0.0000 -29.9218 -5.5454 9.8055 33.2789 0.0000 0.0000 -7.5913 12.6734 2.9406 -38.5214 0.0000 -0.0000
 2.0110 -33.8459 31.1252 -56.3501 -3.3072 -175.1553 24.0209 -6.5283 1.8997 8.6411 -0.8466 -0.2726 3.1402 0.9068 4.5028 0.8701 -0.1784 -0.8345 23.3824 -7.4625 10.1893 -16.9141 9.6375 -9.8123 -18.9052 22.3423 43.9334 -43.0607 7.3584 26.9244 0.0000 0.0000 33.2559 49.5591 75.1353 -52.2912 -0.0000 0.0000 0.0000 -0.0000 0.0000 -0.0000 -26.6161 -18.5408 -43.0440 -35.7692 12.9870 -27.0234 -0.0000 -0.0000 -41.0777 -26.4343 -72.3134 -6.0031 0.0000 -0.0000 0.0000 -0.0000 0.0000 0.0000 -70.9546 1.2186 -15.0495 72.4025 0.0000 0.0000 -39.8897 -5.7506 -16.3165 -23.2085 0.0000 -0.0000 -30.0031 -5.6144 9.7845 33.8786 0.0000 0.0000 -5.3426 12.6978 2.7191 -38.2960 0.0000 -0.0000
 2.0580 -33.7255 31.1385 -56.2953 -3.1702 -175.0352 24.0230 -6.4188 1.8238 8.6370 -0.8431 -0.2800 3.1715 0.9145 4.4649 0.8654 -0.1728 -0.8380 23.3572 -7.4293 10.1417 -16.9218 9.5987 -9.7646 -18.8388 22.3158 43.9089 -42.9956 7.3460 26.9170 0.0000 0.0000 33.2804 49.9188 75.1620 -52.5623 -0.0000 0.0000 -0.0000 -0.0000 -0.0000 0.0000 -26.5712 -18.5716 -43.0341 -35.6468 12.9710 -27.0931 -0.0000 -0.0000 -40.9770 -26.8602 -72.3546 -6.3105 -0.0000 0.0000 -0.0000 0.0000 0.0000 0.0000 -70.5360 1.2441 -15.0008 72.1103 0.0000 0.0000 -39.9485 -5.6977 -16.2970 -23.3002 0.0000 -0.0000 -30.1392 -5.6514 9.7480 34.6381 0.0000 0.0000 -2.7581 12.6535 2.4657 -37.6960 0.0000 -0.0000
 2.1042 -33.6040 31.1524 -56.2416 -2.9994 -174.9036 24.0229 -6.2776 1.7280 8.6304 -0.8391 -0.2839 3.2093 0.9170 4.4246 0.8597 -0.1644 -0.8446 23.3256 -7.3945 10.0911 -16.9421 9.5629 -9.7053 -18.7197 22.2971 43.8642 -42.9650 7.3596 26.9258 0.0000 0.0000 33.3037 50.3103 75.1989 -52.8794 -0.0000 -0.0000 -0.0000 0.0000 0.0000 -0.0000 -26.5184 -18.5998 -43.0282 -35.5352 12.9605 -27.1568 -0.0000 -0.0000 -40.8928 -27.1973 -72.3968 -6.5471 -0.0000 -0.0000 -0.0000 0.0000 0.0000 0.0000 -70.1176 1.2931 -14.9220 71.8194 0.0000 0.0000 -40.0198 -5.6497 -16.2744 -23.3918 0.0000 -0.0000 -30.3525 -5.6589 9.6778 35.5662 0.0000 0.0000 0.2043 12.5516 2.1500 -36.6229 0.0000 -0.0000
 2.1491 -33.4813 31.1666 -56.1813 -2.7926 -174.7637 24.0292 -6.1044 1.6131 8.6219 -0.8362 -0.2863 3.2520 0.9204 4.3827 0.8520 -0.1544 -0.8534 23.2942 -7.3628 10.0448 -16.9787 9.5356 -9.6399 -18.5474 22.2837 43.7999 -42.9648 7.4032 26.9535 0.0000 0.0000 33.3217 50.7320 75.2465 -53.2476 0.0000 -0.0000 -0.0000 -0.0000 -0.0000 -0.0000 -26.4565 -18.6260 -43.0275 -35.4353 12.9526 -27.2114 -0.0000 -0.0000 -40.8267 -27.4746 -72.4336 -6.7448 0.0000 0.0000 -0.0000 -0.0000 0.0000 0.0000 -69.6932 1.3661 -14.8126 71.5356 0.0000 0.0000 -40.1034 -5.6077 -16.2454 -23.4796 0.0000 -0.0000 -30.6330 -5.6347 9.5678 36.6534 0.0000 0.0000 3.5696 12.4162 1.7351 -34.9264 0.0000 -0.0000
 2.1928 -33.3579 31.1805 -56.1133 -2.5572 -174.6198 24.0419 -5.9088 1.4858 8.6129 -0.8322 -0.2912 3.2998 0.9290 4.3422 0.8406 -0.1447 -0.8642 23.2648 -7.3365 10.0032 -17.0289 9.5177 -9.5708 -18.3310 22.2723 43.7191 -42.9852 7.4737 26.9976 0.0000 0.0000 33.3351 51.1713 75.3064 -53.6602 -0.0000 -0.0000 0.0000 -0.0000 0.0000 -0.0000 -26.3850 -18.6510 -43.0325 -35.3452 12.9457 -27.2560 -0.0000 -0.0000 -40.7789 -27.7669 -72.4619 -6.9744 -0.0000 0.0000 -0.0000 0.0000 -0.0000 0.0000 -69.2643 1.4588 -14.6802 71.2638 0.0000 0.0000 -40.1955 -5.5724 -16.2083 -23.5622 0.0000 -0.0000 -30.9777 -5.5852 9.4089 37.8832 0.0000 0.0000 7.3294 12.2799 1.1847 -32.4227 0.0000 -0.0000
 2.2353 -33.2343 31.1930 -56.0329 -2.3052 -174.4780 24.0618 -5.6969 1.3500 8.6051 -0.8289 -0.2922 3.3510 0.9375 4.3000 0.8280 -0.1320 -0.8783 23.2376 -7.3149 9.9681 -17.0881 9.5069 -9.4992 -18.0874 22.2608 43.6292 -43.0131 7.5610 27.0550 0.0000 0.0000 33.3420 51.6346 75.3767 -54.1245 0.0000 0.0000 -0.0000 0.0000 -0.0000 -0.0000 -26.3062 -18.6766 -43.0394 -35.2629 12.9415 -27.2898 -0.0000 -0.0000 -40.7469 -27.9797 -72.4861 -7.1379 0.0000 -0.0000 -0.0000 -0.0000 0.0000 0.0000 -68.8298 1.5619 -14.5345 71.0106 0.0000 0.0000 -40.2911 -5.5451 -16.1641 -23.6406 0.0000 -0.0000 -31.3749 -5.5216 9.1964 39.2293 0.0000 0.0000 11.4273 12.1752 0.4662 -28.9619 0.0000 -0.0000
 2.2767 -33.1110 31.2027 -55.9351 -2.0498 -174.3451 24.0900 -5.4810 1.2164 8.5994 -0.8266 -0.2937 3.4055 0.9497 4.2576 0.8144 -0.1192 -0.8932 23.2143 -7.2984 9.9415 -17.1523 9.5045 -9.4296 -17.8350 22.2471 43.5380 -43.0298 7.6588 27.1180 0.0000 0.0000 33.3441 52.0969 75.4611 -54.6233 -0.0000 -0.0000 -0.0000 -0.0000 -0.0000 0.0000 -26.2209 -18.7027 -43.0473 -35.1857 12.9402 -27.3141 -0.0000 -0.0000 -40.7256 -28.1767 -72.5015 -7.2955 0.0000 -0.0000 0.0000 0.0000 0.0000 0.0000 -68.3886 1.6662 -14.3872 70.7830 0.0000 0.0000 -40.3844 -5.5267 -16.1130 -23.7175 0.0000 -0.0000 -31.8083 -5.4548 8.9310 40.6616 0.0000 0.0000 15.7492 12.1228 -0.4405 -24.5683 0.0000 -0.0000
 2.3169 -32.9886 31.2084 -55.8152 -1.8034 -174.2283 24.1272 -5.2726 1.0933 8.5984 -0.8226 -0.2976 3.4614 0.9644 4.2185 0.7998 -0.1063 -0.9103 23.1904 -7.2873 9.9216 -17.2081 9.5067 -9.3636 -17.5912 22.2310 43.4510 -43.0212 7.7555 27.1808 0.0000 0.0000 33.3398 52.5522 75.5555 -55.1417 0.0000 -0.0000 -0.0000 -0.0000 -0.0000 0.0000 -26.1305 -18.7321 -43.0542 -35.1123 12.9457 -27.3299 -0.0000 -0.0000 -40.7075 -28.3729 -72.5131 -7.4652 -0.0000 -0.0000 -0.0000 -0.0000 -0.0000 -0.0000 -67.9398 1.7625 -14.2490 70.5877 0.0000 0.0000 -40.4698 -5.5197 -16.0550 -23.7981 0.0000 -0.0000 -32.2598 -5.3950 8.6196 42.1550 0.0000 0.0000 20.1185 12.1255 -1.5361 -19.5554 0.0000 -0.0000
 2.3557 -32.8677 31.2094 -55.6719 -1.5809 -174.1345 24.1704 -5.0849 0.9805 8.6055 -0.8121 -0.2876 3.5145 0.9735 4.1817 0.7883 -0.0871 -0.9382 23.1685 -7.2798 9.9063 -17.2597 9.5091 -9.2947 -17.3693 22.2038 43.3690 -42.9770 7.8411 27.2536 0.0000 0.0000 33.3237 52.9916 75.6533 -55.6792 -0.0000 0.0000 -0.0000 0.0000 -0.0000 0.0000 -26.0329 -18.7707 -43.0550 -35.0445 12.9566 -27.3374 -0.0000 -0.0000 -40.6936 -28.4932 -72.5282 -7.5547 -0.0000 0.0000 0.0000 -0.0000 0.0000 0.0000 -67.4848 1.8401 -14.1314 70.4280 0.0000 0.0000 -40.5408 -5.5277 -15.9911 -23.8894 0.0000 -0.0000 -32.7186 -5.3555 8.2738 43.7007 0.0000 0.0000 24.3091 12.1699 -2.7975 -14.4969 0.0000 -0.0000
 2.3924 -32.7487 31.2053 -55.5079 -1.3765 -174.0621 24.2166 -4.9087 0.8852 8.6173 -0.8059 -0.2915 3.5709 0.9865 4.1448 0.7750 -0.0696 -0.9556 23.1491 -7.2741 9.8983 -17.3014 9.5154 -9.2335 -17.1892 22.1757 43.3110 -42.8844 7.9107 27.3065 0.0000 0.0000 33.3052 53.3862 75.7755 -56.1874 0.0000 0.0000 -0.0000 0.0000 0.0000 -0.0000 -25.9327 -18.8036 -43.0482 -34.9714 12.9727 -27.3485 -0.0000 -0.0000 -40.6689 -28.6494 -72.5408 -7.6851 0.0000 0.0000 0.0000 -0.0000 0.0000 0.0000 -67.0296 1.9081 -14.0323 70.3097 0.0000 0.0000 -40.5941 -5.5553 -15.9176 -23.9972 0.0000 -0.0000 -33.1822 -5.3244 7.9068 45.3056 0.0000 0.0000 28.0774 12.2363 -4.1692 -9.9771 0.0000 -0.0000
 2.4260 -32.6313 31.1962 -55.3108 -1.1783 -174.0140 24.2859 -4.7321 0.7927 8.6314 -0.8017 -0.2938 3.6240 0.9985 4.1115 0.7617 -0.0514 -0.9736 23.1322 -7.2654 9.8915 -17.3341 9.5177 -9.1708 -17.0592 22.1370 43.2774 -42.7411 7.9545 27.3518 0.0000 0.0000 33.2819 53.7567 75.8917 -56.6909 0.0000 -0.0000 -0.0000 0.0000 -0.0000 0.0000 -25.8294 -18.8329 -43.0320 -34.8928 12.9908 -27.3593 -0.0000 -0.0000 -40.6358 -28.8476 -72.5588 -7.8589 0.0000 0.0000 -0.0000 -0.0000 -0.0000 0.0000 -66.5622 1.9736 -13.9431 70.2371 0.0000 0.0000 -40.6291 -5.6102 -15.8309 -24.1279 0.0000 -0.0000 -33.6363 -5.2903 7.5395 46.9912 0.0000 0.0000 31.1940 12.3155 -5.5775 -6.3474 0.0000 -0.0000
